<svg xmlns="http://www.w3.org/2000/svg" width="260" height="64" viewBox="0 0 260 64" role="img" aria-labelledby="title desc">
  <title id="title">Mitti &amp; More</title>
  <desc id="desc">A leaf and terracotta pot beside the brand name</desc>
  <g fill="none" stroke-linecap="round" stroke-linejoin="round">
    <path d="M18 51C23 37 25 25 24 10" stroke="#66704f" stroke-width="2.4"/>
    <path d="M24 19c-8-1-11-5-12-10 7 0 11 3 12 10Z" fill="#79835f" stroke="#66704f" stroke-width="1.2"/>
    <path d="M22 29c-8 0-12-3-14-8 7-1 12 2 14 8Z" fill="#79835f" stroke="#66704f" stroke-width="1.2"/>
    <path d="M21 39c-7 1-11-1-14-6 7-2 12 0 14 6Z" fill="#79835f" stroke="#66704f" stroke-width="1.2"/>
    <path d="M25 15c6-2 10-6 10-11-6 1-10 5-10 11Z" fill="#79835f" stroke="#66704f" stroke-width="1.2"/>
    <path d="M24 25c7-2 11-6 12-11-7 1-11 5-12 11Z" fill="#79835f" stroke="#66704f" stroke-width="1.2"/>
    <path d="M23 35c7-1 11-4 13-9-7 0-12 4-13 9Z" fill="#79835f" stroke="#66704f" stroke-width="1.2"/>
    <path d="M39 22h20l-2.4 4.5H41.4L39 22Z" fill="#c66a45" stroke="#a95236" stroke-width="1.4"/>
    <path d="M42 27c-2 8-4 18 1 23 4 4 12 4 16 0 5-5 3-15 1-23H42Z" fill="#c66a45" stroke="#a95236" stroke-width="1.4"/>
    <path d="M44 36h14M43 43h16" stroke="#e7b796" stroke-width="1.4"/>
  </g>
  <text x="72" y="43" fill="#4b3428" font-family="Georgia, 'Times New Roman', serif" font-size="31" letter-spacing="-.5">Mitti &amp; More</text>
</svg>