<svg xmlns="http://www.w3.org/2000/svg" viewBox="0 0 64 64"><rect width="64" height="64" rx="16" fill="#f5ecde"/><path d="M20 23h25l-3 6H23l-3-6Z" fill="#c66a45"/><path d="M24 29c-3 10-3 22 2 26 5 4 12 4 17 0 5-4 5-16 2-26H24Z" fill="#c66a45"/><path d="M27 39h15M26 47h17" fill="none" stroke="#f0c4a5" stroke-width="2" stroke-linecap="round"/><path d="M18 44C19 31 19 20 17 9M18 18c-7-1-10-4-11-8 6 0 9 3 11 8Zm0 9c-6 0-10-3-12-7 6-1 10 2 12 7Z" fill="none" stroke="#6f7954" stroke-width="2" stroke-linecap="round" stroke-linejoin="round"/></svg>